<?xml version="1.0" encoding="utf-8"?>
<!-- Generator: Adobe Illustrator 23.0.1, SVG Export Plug-In . SVG Version: 6.00 Build 0)  -->
<svg version="1.1" id="Layer_1" xmlns="http://www.w3.org/2000/svg" xmlns:xlink="http://www.w3.org/1999/xlink" x="0px" y="0px"
	 viewBox="0 0 816.61 221.83" style="enable-background:new 0 0 816.61 221.83;" xml:space="preserve">
<style type="text/css">
	.st0{fill:#FFFFFF;}
	.st1{clip-path:url(#SVGID_3_);fill:#FFFFFF;}
	.st2{clip-path:url(#SVGID_4_);}
	.st3{fill:url(#SVGID_5_);}
	.st4{fill:url(#SVGID_6_);}
	.st5{fill:url(#SVGID_7_);}
	.st6{fill:url(#SVGID_8_);}
	.st7{fill:url(#SVGID_9_);}
	.st8{fill:#18A7E7;}
	.st9{clip-path:url(#SVGID_10_);fill:#18A7E7;}
	.st10{fill:none;}
	.st11{fill:url(#SVGID_11_);}
	.st12{fill:url(#SVGID_12_);}
	.st13{fill:url(#SVGID_13_);}
</style>
<g>
	<linearGradient id="SVGID_3_" gradientUnits="userSpaceOnUse" x1="158.5762" y1="107.0678" x2="116.4029" y2="156.6215">
		<stop  offset="0" style="stop-color:#475D66"/>
		<stop  offset="1" style="stop-color:#818FA7"/>
	</linearGradient>
	<path style="fill:url(#SVGID_3_);" d="M152.92,79.06c3.31,8.24,4.35,16.8,3.74,25.6c-0.44,6.29-1.62,12.41-3.92,18.29
		c-2.62,6.7-6.59,12.54-11.48,17.76c-2.96,3.15-6.03,6.2-9.03,9.32c-2.02,2.11-3.87,4.35-5.17,6.99c-0.91,1.84-1.38,3.79-1.43,5.87
		c-0.26,0.04-0.48,0.07-0.87,0.12c0.16,0.05,0.27,0.14,0.41,0.19c2.92,1.12,4.51,3.11,4.4,6.22c-0.11,2.86-1.81,4.66-5.06,5.71
		c3.57,1.31,5.26,3.42,5.09,6.39c-0.16,2.86-2.09,5.06-5.17,5.77c2.08,0.63,3.6,1.66,4.42,3.13c26.32-11.94,46.53-36.9,49.79-64.81
		c3.27-28-11.21-52.03-35.34-62.15C147.29,68,150.59,73.24,152.92,79.06"/>
	<g>
		<rect x="251.32" y="46.92" width="13.44" height="108.7"/>
		<path d="M324.31,72.48c-11.66-0.43-21.8,3.69-30.2,12.24c-8.4,8.39-12.65,18.63-12.65,30.43c0,11.37,3.92,21.27,11.66,29.44
			c7.79,8.22,17.47,12.53,28.75,12.82c0.54,0.02,1.07,0.03,1.61,0.03c10.93,0,20.54-4.08,28.59-12.14
			c8.49-8.48,12.79-18.67,12.79-30.29c0-11.27-3.97-21.18-11.79-29.43C345.37,77.32,335.69,72.91,324.31,72.48z M322.12,144.23
			h-0.02c-7.73-0.26-14.09-3.25-19.47-9.15c-5.27-5.77-7.87-12.75-7.74-20.73c0.13-8.07,2.92-14.72,8.51-20.31
			c5.64-5.64,12.1-8.38,19.75-8.38c7.74-0.02,14.36,2.61,19.85,8.36c5.49,5.75,8.28,12.37,8.54,20.2
			c0.13,8.35-2.66,15.39-8.55,21.54C337.29,141.85,330.5,144.63,322.12,144.23z"/>
		<polygon points="413.71,136.68 388.37,75.3 388.01,74.41 373.91,74.41 407.26,155.62 420.03,155.62 453.94,74.41 439.28,74.41 		
			"/>
		<rect x="464.67" y="74.41" width="13.17" height="81.21"/>
		<rect x="464.67" y="46.78" width="13.17" height="13.91"/>
		<path d="M526.46,72.62c-10.3,0-19.02,3.57-25.91,10.61c-6.84,6.98-10.3,15.83-10.3,26.29v46.1h13.45v-47.2
			c0-6.26,2.2-11.5,6.73-16.03c4.47-4.46,9.86-6.73,16.03-6.73c6.07,0,11.23,2.2,15.76,6.73c4.62,4.62,6.87,9.86,6.87,16.03v47.2
			h13.44v-46.1c0-10.46-3.47-19.31-10.3-26.29C545.33,76.18,536.66,72.62,526.46,72.62z"/>
		<path d="M618.54,72.48c-11.65-0.43-21.8,3.69-30.2,12.24c-8.4,8.39-12.65,18.63-12.65,30.43c0,11.37,3.92,21.27,11.66,29.44
			c7.79,8.22,17.47,12.53,28.75,12.82c0.54,0.02,1.07,0.03,1.61,0.03c10.93,0,20.55-4.08,28.6-12.13
			c8.49-8.48,12.79-18.67,12.79-30.29c0-11.28-3.97-21.18-11.79-29.43C639.6,77.32,629.93,72.91,618.54,72.48z M616.36,144.23h-0.02
			c-7.72-0.26-14.09-3.25-19.47-9.15c-5.26-5.77-7.87-12.75-7.74-20.73c0.14-8.08,2.92-14.72,8.52-20.31
			c5.64-5.64,12.1-8.38,19.75-8.38c0.18,0,0.36,0,0.54,0c7.63,0,13.95,2.73,19.3,8.36c5.49,5.75,8.28,12.37,8.55,20.2
			c0.13,8.35-2.67,15.39-8.56,21.54C631.52,141.86,624.66,144.62,616.36,144.23z"/>
		<rect x="673.99" y="44.05" width="19.18" height="114.43"/>
		<polygon points="716.07,44.19 716.07,62.68 751.45,62.68 751.45,158.48 770.62,158.48 770.62,62.68 806.14,62.68 806.14,44.19 		
			"/>
	</g>
	<linearGradient id="SVGID_4_" gradientUnits="userSpaceOnUse" x1="42.8006" y1="104.4851" x2="105.5334" y2="14.3396">
		<stop  offset="0" style="stop-color:#475D66"/>
		<stop  offset="1" style="stop-color:#818FA7"/>
	</linearGradient>
	<path style="fill:url(#SVGID_4_);" d="M105.7,6.14l-0.91,0.01c-38.13,2.97-72.06,33.8-77.13,70.23
		c-3.94,28.33,10.45,53,34.98,63.39c-3.43-3.85-6.48-7.99-8.79-12.65c-2.49-5-4.14-10.26-5.02-15.77
		c-0.96-5.99-1.27-12.02-0.58-18.06c1.33-11.68,5.93-21.93,13.88-30.59c9.2-10.04,20.63-15.86,34.18-17.44
		c0.34-0.04,0.67-0.04,1.01-0.08c4.83-1.94,9.96-3.31,15.3-4.03c21.88-2.96,17.93-20.27,17.93-20.27
		c-2-13.1-12.16-15.33-18.86-15.33C108.22,5.55,105.7,6.14,105.7,6.14"/>
	<linearGradient id="SVGID_5_" gradientUnits="userSpaceOnUse" x1="107.965" y1="42.4642" x2="178.3417" y2="114.027">
		<stop  offset="0" style="stop-color:#1A5477"/>
		<stop  offset="1" style="stop-color:#18A7E7"/>
	</linearGradient>
	<path class="st3" d="M66.55,58.4c8.36-7.4,18.29-11.81,29.75-13.14c24.17-2.83,47.55,11.15,56.62,33.8
		c1.86,4.64,2.94,9.38,3.47,14.21c2.83,6.71,4.57,14.04,4.94,21.68c1.04,22.05,18.64,19.62,18.64,19.62
		c20.04-1.28,16.84-23.46,16.84-23.46l0.07-0.9c0.36-38.25-27.4-74.74-63.25-82.95c-4.96-1.14-9.86-1.69-14.62-1.69
		C96.31,25.56,76.55,37.99,66.55,58.4"/>
	<linearGradient id="SVGID_6_" gradientUnits="userSpaceOnUse" x1="133.198" y1="201.4306" x2="84.5669" y2="207.3613">
		<stop  offset="0" style="stop-color:#1A5477"/>
		<stop  offset="1" style="stop-color:#18A7E7"/>
	</linearGradient>
	<path class="st4" d="M123.78,196.13H81.04c-3.4,0-6.16,2.76-6.16,6.16c0,3.4,2.76,6.16,6.16,6.16h5.74
		c1.8,4.58,6.23,7.83,11.45,7.83h8.37c5.21,0,9.65-3.25,11.45-7.83h5.74c3.4,0,6.16-2.76,6.16-6.16
		C129.95,198.89,127.19,196.13,123.78,196.13z"/>
	<linearGradient id="SVGID_7_" gradientUnits="userSpaceOnUse" x1="56.1655" y1="164.2215" x2="25.8845" y2="103.1548">
		<stop  offset="0" style="stop-color:#1A5477"/>
		<stop  offset="1" style="stop-color:#18A7E7"/>
	</linearGradient>
	<path class="st5" d="M23.21,80.67c-16.23,2.21-12.33,20.07-12.33,20.07v0.74c1.94,31.14,26.65,59.21,56.3,63.8
		c0.03,0,0.06,0,0.09,0.01c0.7-0.87,1.76-1.53,3.17-1.97c-2.56-0.68-4.12-2.25-4.16-4.91c-0.03-2.42,1.28-3.96,3.59-4.83
		c0.12-0.04,0.22-0.11,0.34-0.16c-0.35-0.04-0.53-0.07-0.73-0.09c-0.04-3.58-1.73-6.45-4.02-8.97c-2.49-2.74-5.13-5.35-7.69-8.03
		c-3.5-3.66-6.6-7.62-8.86-12.19c-1.63-3.28-2.8-6.7-3.58-10.25c-2.98-5.56-5.02-11.77-5.81-18.35
		c-1.6-13.38-9.94-15.06-14.04-15.06C24.11,80.48,23.21,80.67,23.21,80.67"/>
	<g>
		<path d="M251.32,201.78v-17.27h2.45v17.27H251.32z"/>
		<path d="M270.46,197.76v-13.25h2.43v17.27h-2.48l-10.04-13.26v13.26h-2.45v-17.27h2.48L270.46,197.76z"/>
		<path d="M289.59,197.76v-13.25h2.43v17.27h-2.48l-10.04-13.26v13.26h-2.45v-17.27h2.48L289.59,197.76z"/>
		<path d="M298.56,186.83c1.78-1.74,3.93-2.61,6.46-2.61c2.53,0,4.68,0.87,6.46,2.61c1.78,1.74,2.66,3.85,2.66,6.33
			s-0.89,4.6-2.66,6.34s-3.93,2.61-6.46,2.61c-2.53,0-4.68-0.87-6.46-2.61s-2.66-3.86-2.66-6.34S296.78,188.57,298.56,186.83z
			 M300.31,197.89c1.31,1.32,2.88,1.99,4.71,1.99c1.83,0,3.4-0.66,4.71-1.98c1.31-1.32,1.96-2.9,1.96-4.73
			c0-1.89-0.66-3.48-1.96-4.77c-1.31-1.29-2.88-1.94-4.71-1.94c-1.83,0-3.4,0.65-4.71,1.94c-1.31,1.3-1.97,2.89-1.97,4.77
			C298.34,194.99,299,196.56,300.31,197.89z"/>
		<path d="M325.35,201.78h-3.46l-6.6-17.27h2.64l5.69,14.91l5.69-14.91h2.62L325.35,201.78z"/>
		<path d="M337.53,184.52H341l6.58,17.27h-2.62l-1.25-3.27h-8.88l-1.25,3.27h-2.64L337.53,184.52z M339.26,186.87l-3.61,9.39h7.18
			L339.26,186.87z"/>
		<path d="M352.51,186.76h-5.75v-2.24h13.96v2.24h-5.76v15.02h-2.44V186.76z"/>
		<path d="M364.13,201.78v-17.27h2.45v17.27H364.13z"/>
		<path d="M373.11,186.83c1.78-1.74,3.93-2.61,6.46-2.61c2.53,0,4.68,0.87,6.46,2.61c1.78,1.74,2.66,3.85,2.66,6.33
			s-0.89,4.6-2.66,6.34s-3.93,2.61-6.46,2.61c-2.53,0-4.68-0.87-6.46-2.61s-2.66-3.86-2.66-6.34S371.33,188.57,373.11,186.83z
			 M374.86,197.89c1.31,1.32,2.88,1.99,4.71,1.99s3.4-0.66,4.71-1.98c1.31-1.32,1.96-2.9,1.96-4.73c0-1.89-0.66-3.48-1.96-4.77
			c-1.31-1.29-2.88-1.94-4.71-1.94s-3.4,0.65-4.71,1.94c-1.31,1.3-1.97,2.89-1.97,4.77C372.89,194.99,373.55,196.56,374.86,197.89z"
			/>
		<path d="M405.09,197.76v-13.25h2.43v17.27h-2.48l-10.04-13.26v13.26h-2.45v-17.27h2.48L405.09,197.76z"/>
		<path d="M447.69,202.12c-2.54,0-4.71-0.87-6.52-2.61s-2.7-3.86-2.7-6.34s0.9-4.59,2.7-6.33c1.8-1.74,3.97-2.61,6.52-2.61
			c2.01,0,3.8,0.55,5.38,1.65c1.57,1.1,2.69,2.54,3.33,4.33h-2.78c-0.57-1.14-1.39-2.04-2.44-2.73c-1.05-0.68-2.21-1.03-3.48-1.03
			c-1.84,0-3.43,0.65-4.77,1.94c-1.34,1.3-2,2.89-2,4.77c0,1.82,0.67,3.4,2.01,4.72c1.34,1.32,2.93,1.99,4.76,1.99
			c1.27,0,2.43-0.34,3.48-1.03c1.05-0.68,1.87-1.59,2.44-2.73h2.78c-0.64,1.79-1.75,3.23-3.33,4.34
			C451.49,201.56,449.7,202.12,447.69,202.12z"/>
		<path d="M462.08,186.83c1.78-1.74,3.93-2.61,6.46-2.61c2.53,0,4.68,0.87,6.46,2.61c1.78,1.74,2.66,3.85,2.66,6.33
			s-0.89,4.6-2.66,6.34s-3.93,2.61-6.46,2.61c-2.53,0-4.68-0.87-6.46-2.61s-2.66-3.86-2.66-6.34S460.31,188.57,462.08,186.83z
			 M463.83,197.89c1.31,1.32,2.88,1.99,4.71,1.99s3.4-0.66,4.71-1.98c1.31-1.32,1.96-2.9,1.96-4.73c0-1.89-0.66-3.48-1.96-4.77
			c-1.31-1.29-2.88-1.94-4.71-1.94s-3.4,0.65-4.71,1.94c-1.31,1.3-1.97,2.89-1.97,4.77C461.87,194.99,462.52,196.56,463.83,197.89z"
			/>
		<path d="M483.98,184.52v15.02h8.89v2.24h-11.34v-17.27H483.98z"/>
		<path d="M498.43,184.52v15.02h8.89v2.24h-11.34v-17.27H498.43z"/>
		<path d="M516.23,184.52h3.46l6.58,17.27h-2.62l-1.25-3.27h-8.88l-1.25,3.27h-2.64L516.23,184.52z M517.96,186.87l-3.61,9.39h7.18
			L517.96,186.87z"/>
		<path d="M529.19,201.78v-17.27h7.02c0.32,0,0.65,0.02,0.98,0.04c0.34,0.03,0.77,0.13,1.31,0.31c0.54,0.18,1,0.41,1.39,0.71
			c0.39,0.29,0.73,0.73,1.02,1.32s0.44,1.29,0.44,2.08c0,2.03-0.78,3.28-2.33,3.76c0.8,0.16,1.52,0.61,2.18,1.35
			c0.66,0.75,0.98,1.76,0.98,3.04c0,1.71-0.56,2.91-1.67,3.6c-1.11,0.69-2.66,1.04-4.65,1.04H529.19z M538.91,189.32
			c0-0.76-0.22-1.35-0.65-1.78c-0.44-0.43-0.88-0.67-1.31-0.73l-0.69-0.06h-4.63v5.04h4.63c0.08,0,0.18,0,0.3-0.02
			c0.12-0.01,0.33-0.06,0.63-0.15c0.29-0.09,0.56-0.21,0.8-0.36c0.24-0.14,0.45-0.39,0.64-0.73
			C538.82,190.2,538.91,189.79,538.91,189.32z M531.63,199.54h4.86c1.08,0,1.89-0.2,2.43-0.6s0.82-1.11,0.82-2.15
			c0-1.03-0.27-1.75-0.82-2.15c-0.54-0.4-1.35-0.6-2.43-0.6h-4.86V199.54z"/>
		<path d="M547.53,186.83c1.78-1.74,3.93-2.61,6.46-2.61s4.68,0.87,6.46,2.61c1.78,1.74,2.66,3.85,2.66,6.33s-0.89,4.6-2.66,6.34
			s-3.93,2.61-6.46,2.61s-4.68-0.87-6.46-2.61s-2.66-3.86-2.66-6.34S545.75,188.57,547.53,186.83z M549.28,197.89
			c1.31,1.32,2.88,1.99,4.71,1.99s3.4-0.66,4.71-1.98c1.31-1.32,1.96-2.9,1.96-4.73c0-1.89-0.66-3.48-1.96-4.77
			c-1.31-1.29-2.88-1.94-4.71-1.94s-3.4,0.65-4.71,1.94c-1.31,1.3-1.97,2.89-1.97,4.77C547.31,194.99,547.97,196.56,549.28,197.89z"
			/>
		<path d="M579.86,190.48c0,3.16-1.43,5.09-4.29,5.78l4.29,5.52h-2.79l-4.15-5.31h-3.49v5.31h-2.45v-17.27h6.65
			c0.34,0,0.68,0.02,1.02,0.04c0.34,0.03,0.85,0.15,1.53,0.37c0.68,0.22,1.27,0.52,1.77,0.9c0.49,0.38,0.93,0.97,1.32,1.78
			C579.67,188.41,579.86,189.37,579.86,190.48z M569.42,186.76v7.48h4.26c2.48,0,3.73-1.24,3.73-3.73c0-2.5-1.24-3.76-3.73-3.76
			H569.42z"/>
		<path d="M588.39,184.52h3.46l6.58,17.27h-2.62l-1.25-3.27h-8.88l-1.25,3.27h-2.64L588.39,184.52z M590.12,186.87l-3.61,9.39h7.18
			L590.12,186.87z"/>
		<path d="M603.37,186.76h-5.75v-2.24h13.96v2.24h-5.76v15.02h-2.44V186.76z"/>
		<path d="M614.98,201.78v-17.27h2.45v17.27H614.98z"/>
		<path d="M623.96,186.83c1.78-1.74,3.93-2.61,6.46-2.61c2.53,0,4.68,0.87,6.46,2.61c1.78,1.74,2.66,3.85,2.66,6.33
			s-0.89,4.6-2.66,6.34s-3.93,2.61-6.46,2.61c-2.53,0-4.68-0.87-6.46-2.61s-2.66-3.86-2.66-6.34S622.19,188.57,623.96,186.83z
			 M625.71,197.89c1.31,1.32,2.88,1.99,4.71,1.99s3.4-0.66,4.71-1.98c1.31-1.32,1.96-2.9,1.96-4.73c0-1.89-0.66-3.48-1.96-4.77
			c-1.31-1.29-2.88-1.94-4.71-1.94s-3.4,0.65-4.71,1.94c-1.31,1.3-1.97,2.89-1.97,4.77C623.74,194.99,624.4,196.56,625.71,197.89z"
			/>
		<path d="M655.94,197.76v-13.25h2.43v17.27h-2.48l-10.04-13.26v13.26h-2.45v-17.27h2.48L655.94,197.76z"/>
	</g>
	<g>
		<path d="M698.74,202.12c-2.54,0-4.71-0.87-6.52-2.61s-2.7-3.86-2.7-6.34s0.9-4.59,2.7-6.33c1.8-1.74,3.97-2.61,6.52-2.61
			c2.01,0,3.8,0.55,5.38,1.65c1.57,1.1,2.69,2.54,3.33,4.33h-2.78c-0.57-1.14-1.39-2.04-2.44-2.73s-2.21-1.03-3.48-1.03
			c-1.84,0-3.43,0.65-4.77,1.94c-1.34,1.3-2,2.89-2,4.77c0,1.82,0.67,3.4,2.01,4.72s2.93,1.99,4.76,1.99c1.27,0,2.43-0.34,3.48-1.03
			s1.87-1.59,2.44-2.73h2.78c-0.64,1.79-1.75,3.23-3.33,4.34C702.54,201.56,700.75,202.12,698.74,202.12z"/>
		<path d="M718.13,202.09c-0.19,0.01-0.36,0.02-0.52,0.02s-0.34-0.01-0.52-0.02c-0.19-0.02-0.53-0.07-1.02-0.15
			c-0.5-0.09-0.96-0.21-1.38-0.37c-0.43-0.16-0.91-0.41-1.43-0.76c-0.53-0.34-0.98-0.75-1.35-1.22s-0.68-1.09-0.92-1.85
			c-0.25-0.76-0.37-1.62-0.37-2.58v-10.64h2.45v10.64c0,0.26,0.01,0.53,0.04,0.79c0.03,0.27,0.13,0.66,0.3,1.16
			c0.17,0.51,0.4,0.95,0.7,1.33c0.3,0.38,0.75,0.71,1.35,1c0.61,0.29,1.33,0.43,2.16,0.43c0.83,0,1.55-0.14,2.16-0.43
			c0.61-0.29,1.06-0.62,1.36-1c0.3-0.38,0.54-0.82,0.7-1.33c0.17-0.51,0.27-0.9,0.3-1.16c0.03-0.27,0.05-0.53,0.05-0.79v-10.64h2.44
			v10.64c0,0.95-0.13,1.81-0.38,2.58c-0.25,0.77-0.56,1.39-0.92,1.86c-0.37,0.47-0.81,0.88-1.34,1.22c-0.53,0.34-1.01,0.6-1.43,0.76
			c-0.43,0.16-0.89,0.28-1.39,0.37C718.66,202.03,718.31,202.08,718.13,202.09z"/>
		<path d="M731.03,184.52v15.02h8.89v2.24h-11.34v-17.27H731.03z"/>
		<path d="M745.07,186.76h-5.75v-2.24h13.96v2.24h-5.76v15.02h-2.44V186.76z"/>
		<path d="M764.04,202.09c-0.19,0.01-0.36,0.02-0.52,0.02c-0.16,0-0.34-0.01-0.52-0.02c-0.19-0.02-0.53-0.07-1.02-0.15
			c-0.5-0.09-0.96-0.21-1.38-0.37c-0.43-0.16-0.91-0.41-1.43-0.76c-0.53-0.34-0.98-0.75-1.35-1.22c-0.37-0.47-0.68-1.09-0.92-1.85
			c-0.25-0.76-0.37-1.62-0.37-2.58v-10.64h2.45v10.64c0,0.26,0.01,0.53,0.04,0.79c0.03,0.27,0.13,0.66,0.3,1.16
			c0.17,0.51,0.4,0.95,0.7,1.33c0.3,0.38,0.75,0.71,1.35,1c0.61,0.29,1.33,0.43,2.16,0.43c0.83,0,1.55-0.14,2.16-0.43
			c0.61-0.29,1.06-0.62,1.36-1c0.3-0.38,0.54-0.82,0.7-1.33c0.17-0.51,0.27-0.9,0.3-1.16c0.03-0.27,0.05-0.53,0.05-0.79v-10.64h2.44
			v10.64c0,0.95-0.13,1.81-0.38,2.58c-0.25,0.77-0.56,1.39-0.92,1.86c-0.37,0.47-0.81,0.88-1.34,1.22c-0.53,0.34-1.01,0.6-1.43,0.76
			c-0.43,0.16-0.89,0.28-1.39,0.37C764.57,202.03,764.23,202.08,764.04,202.09z"/>
		<path d="M787.38,190.48c0,3.16-1.43,5.09-4.29,5.78l4.29,5.52h-2.79l-4.15-5.31h-3.49v5.31h-2.45v-17.27h6.65
			c0.34,0,0.68,0.02,1.02,0.04c0.34,0.03,0.85,0.15,1.53,0.37c0.68,0.22,1.27,0.52,1.77,0.9c0.49,0.38,0.93,0.97,1.32,1.78
			C787.19,188.41,787.38,189.37,787.38,190.48z M776.95,186.76v7.48h4.26c2.48,0,3.73-1.24,3.73-3.73c0-2.5-1.24-3.76-3.73-3.76
			H776.95z"/>
		<path d="M792.74,199.54h8.89v2.24h-11.34v-17.27h11.34v2.24h-8.89v5.49h8.24v2.23h-8.24V199.54z"/>
	</g>
	<path class="st8" d="M422.37,193.62c0,1.69,1.37,3.06,3.06,3.06c1.69,0,3.06-1.37,3.06-3.06c0-1.69-1.37-3.06-3.06-3.06
		C423.73,190.56,422.37,191.93,422.37,193.62"/>
	<g>
		<defs>
			<path id="SVGID_1_" d="M670.58,193.62c0,1.69,1.37,3.06,3.06,3.06c1.69,0,3.06-1.37,3.06-3.06c0-1.69-1.37-3.06-3.06-3.06
				C671.95,190.56,670.58,191.93,670.58,193.62"/>
		</defs>
		<use xlink:href="#SVGID_1_"  style="overflow:visible;fill:#18A7E7;"/>
		<clipPath id="SVGID_8_">
			<use xlink:href="#SVGID_1_"  style="overflow:visible;"/>
		</clipPath>
		<rect x="670.58" y="190.56" style="clip-path:url(#SVGID_8_);fill:#18A7E7;" width="6.12" height="6.12"/>
	</g>
	<g>
		<path class="st10" d="M141.49,100.31c0,2.65-2.17,4.82-4.82,4.82c-1.37,0-2.57-0.56-3.45-1.49H117.8v25.5
			c0,5.46-4.42,9.88-9.88,9.88H89.84v-17.23c-1.25-0.84-2.13-2.25-2.13-3.9c0-2.65,2.13-4.78,4.78-4.78c2.65,0,4.82,2.13,4.82,4.78
			c0,1.65-0.88,3.05-2.17,3.9v11.93h12.77c2.53,0,4.58-2.05,4.58-4.58v-30.8h19.84c0.36-0.8,0.96-1.41,1.69-1.89v-15.1
			c-0.48-0.32-0.88-0.76-1.25-1.25H83.1c-2.17,0-3.9,1.77-3.9,3.94v0.12c1.25,0.84,2.13,2.25,2.13,3.9c0,2.61-2.17,4.78-4.82,4.78
			c-2.61,0-4.78-2.17-4.78-4.78c0-1.65,0.88-3.05,2.13-3.9v-0.12c0-5.1,4.14-9.24,9.24-9.24h49.68c0.88-1.25,2.25-2.13,3.9-2.13
			c2.65,0,4.82,2.13,4.82,4.78c0,1.65-0.88,3.01-2.17,3.9v15.1C140.61,97.3,141.49,98.7,141.49,100.31z"/>
		<linearGradient id="SVGID_9_" gradientUnits="userSpaceOnUse" x1="74.7139" y1="121.5795" x2="134.0431" y2="85.8544">
			<stop  offset="0" style="stop-color:#1A5477"/>
			<stop  offset="1" style="stop-color:#18A7E7"/>
		</linearGradient>
		<path class="st7" d="M92.49,105.13c2.65,0,4.82-2.17,4.82-4.82c0-2.61-2.17-4.78-4.82-4.78c-1.65,0-3.01,0.88-3.86,2.13h-4.9
			c-5.46,0-9.88,4.42-9.88,9.88v31.49h5.34v-31.49c0-2.53,2.01-4.54,4.54-4.54h4.9C89.48,104.24,90.85,105.13,92.49,105.13z"/>
		<linearGradient id="SVGID_10_" gradientUnits="userSpaceOnUse" x1="73.7904" y1="120.0458" x2="133.1196" y2="84.3207">
			<stop  offset="0" style="stop-color:#1A5477"/>
			<stop  offset="1" style="stop-color:#18A7E7"/>
		</linearGradient>
		<path style="fill:url(#SVGID_10_);" d="M141.49,100.31c0,2.65-2.17,4.82-4.82,4.82c-1.37,0-2.57-0.56-3.45-1.49H117.8v25.5
			c0,5.46-4.42,9.88-9.88,9.88H89.84v-17.23c-1.25-0.84-2.13-2.25-2.13-3.9c0-2.65,2.13-4.78,4.78-4.78c2.65,0,4.82,2.13,4.82,4.78
			c0,1.65-0.88,3.05-2.17,3.9v11.93h12.77c2.53,0,4.58-2.05,4.58-4.58v-30.8h19.84c0.36-0.8,0.96-1.41,1.69-1.89V80.11H83.1
			c-2.17,0-3.9,1.77-3.9,3.94v0.12c1.25,0.84,2.13,2.25,2.13,3.9c0,2.61-2.17,4.78-4.82,4.78c-2.61,0-4.78-2.17-4.78-4.78
			c0-1.65,0.88-3.05,2.13-3.9v-0.12c0-5.1,4.14-9.24,9.24-9.24h49.68c0.88-1.25,2.25-2.13,3.9-2.13c2.65,0,4.82,2.13,4.82,4.78
			c0,1.65-0.88,3.01-2.17,3.9v15.1C140.61,97.3,141.49,98.7,141.49,100.31z"/>
		<linearGradient id="SVGID_11_" gradientUnits="userSpaceOnUse" x1="90.9052" y1="32.7711" x2="170.9082" y2="121.9311">
			<stop  offset="0" style="stop-color:#0BD4C1"/>
			<stop  offset="0.2291" style="stop-color:#527FE0"/>
			<stop  offset="0.4162" style="stop-color:#9F2DF5"/>
			<stop  offset="0.6173" style="stop-color:#883DF8"/>
			<stop  offset="0.7793" style="stop-color:#D136BB"/>
			<stop  offset="1" style="stop-color:#F43B92"/>
		</linearGradient>
		<path class="st11" d="M134.02,80.11v1.25c-0.48-0.32-0.88-0.76-1.25-1.25H134.02z"/>
	</g>
</g>
</svg>
