<svg width="96" height="96" xmlns="http://www.w3.org/2000/svg" xmlns:xlink="http://www.w3.org/1999/xlink" overflow="hidden"><defs><clipPath id="clip0"><rect x="1001" y="138" width="96" height="96"/></clipPath></defs><g clip-path="url(#clip0)" transform="translate(-1001 -138)"><path d="M1048.9 219C1033.4 219 1020.9 206.5 1020.9 191 1020.9 175.5 1033.4 163 1048.9 163 1064.4 163 1076.9 175.5 1076.9 191L1076.9 191C1076.9 206.5 1064.4 219 1048.9 219ZM1072.6 166.6 1075.6 163.6C1076.7 162.4 1076.7 160.5 1075.5 159.4 1074.3 158.3 1072.5 158.2 1071.3 159.3L1067.9 162.8C1063.1 159.6 1057.6 157.6 1051.9 157.2L1051.9 153 1060.9 153 1060.9 147 1036.9 147 1036.9 153 1045.9 153 1045.9 157.1C1027.1 158.7 1013.3 175.3 1014.9 194 1016.5 212.7 1033.1 226.6 1051.8 225 1070.5 223.4 1084.4 206.8 1082.8 188.1 1082.1 179.9 1078.5 172.3 1072.6 166.6Z" fill="#FFFFFF"/><path d="M1065.9 174C1061.9 170 1056.6 167.5 1050.9 167.1L1050.9 191 1046.9 191 1046.9 167.1C1033.7 168.2 1023.9 179.8 1025 193 1026.1 206.2 1037.7 216 1050.9 215 1064.1 214 1073.9 202.3 1072.8 189.1 1072.4 183.4 1069.9 178.1 1065.9 174Z" fill="#FFFFFF"/></g></svg>