<svg width="96" height="96" xmlns="http://www.w3.org/2000/svg" xmlns:xlink="http://www.w3.org/1999/xlink" overflow="hidden"><defs><clipPath id="clip0"><rect x="1151" y="499" width="96" height="96"/></clipPath></defs><g clip-path="url(#clip0)" transform="translate(-1151 -499)"><path d="M1237 570 1234 573 1165 573 1161 569 1161 549 1165 545 1234 545 1237 548 1237 570ZM1155 539 1155 579 1243 579 1243 539 1155 539Z" fill="#FFFFFF"/><path d="M1207 559C1207 564.523 1203.42 569 1199 569 1194.58 569 1191 564.523 1191 559 1191 553.477 1194.58 549 1199 549 1203.42 549 1207 553.477 1207 559Z" fill="#FFFFFF"/><path d="M1177 559C1177 560.657 1175.66 562 1174 562 1172.34 562 1171 560.657 1171 559 1171 557.343 1172.34 556 1174 556 1175.66 556 1177 557.343 1177 559Z" fill="#FFFFFF"/><path d="M1227 559C1227 560.657 1225.66 562 1224 562 1222.34 562 1221 560.657 1221 559 1221 557.343 1222.34 556 1224 556 1225.66 556 1227 557.343 1227 559Z" fill="#FFFFFF"/><path d="M1216.9 519.7 1218.4 523.5 1224.4 522.3 1220.2 511.8 1166.4 533.8 1197.2 527.7Z" fill="#FFFFFF"/><path d="M1211.7 535 1227.5 531.9 1228.2 535 1234.3 535 1232.3 524.8 1181 535Z" fill="#FFFFFF"/></g></svg>